<svg width="360" height="89" viewBox="0 0 360 89" fill="none" xmlns="http://www.w3.org/2000/svg">
<g clip-path="url(#clip0_1713_56543)">
<path d="M6.10762 0L27.5067 51.6913H28.4934L49.769 0H79V89H56.0592V36.6326H55.3192L35.0302 88.3239H20.9698L0.680775 36.3867H-0.0592499V89H-23V0H6.10762Z" fill="black"/>
<path d="M107.108 0L128.507 51.6913H129.493L150.769 0H180V89H157.059V36.6326H156.319L136.03 88.3239H121.97L101.681 36.3867H100.941V89H78V0H107.108Z" fill="white"/>
<path d="M209.108 0L230.507 51.6913H231.493L252.769 0H282V89H259.059V36.6326H258.319L238.03 88.3239H223.97L203.681 36.3867H202.941V89H180V0H209.108Z" fill="black"/>
<path d="M311.108 0L332.507 51.6913H333.493L354.769 0H384V89H361.059V36.6326H360.319L340.03 88.3239H325.97L305.681 36.3867H304.941V89H282V0H311.108Z" fill="white"/>
</g>
<defs>
<clipPath id="clip0_1713_56543">
<rect width="360" height="89" fill="white"/>
</clipPath>
</defs>
</svg>
