<svg width="40" height="40" viewBox="0 0 40 40" fill="none" xmlns="http://www.w3.org/2000/svg">
<rect width="40" height="40" rx="8" fill="#1D1D1D"/>
<path d="M20.0051 13.0254C23.8539 13.0254 26.9847 16.1563 26.9847 20.0051C26.9847 23.8539 23.8539 26.9847 20.0051 26.9847C16.1563 26.9847 13.0254 23.8539 13.0254 20.0051C13.0254 16.1563 16.1563 13.0254 20.0051 13.0254ZM20.0051 11.0312C15.0396 11.0312 11.0312 15.0396 11.0312 20.0051C11.0312 24.9706 15.0495 28.9789 20.0051 28.9789C24.9606 28.9789 28.9789 24.9606 28.9789 20.0051C28.9789 15.0495 24.9606 11.0312 20.0051 11.0312Z" fill="white"/>
<path fill-rule="evenodd" clip-rule="evenodd" d="M19.0059 30.9729V27.9717H21.0059V30.9729H19.0059Z" fill="white"/>
<path fill-rule="evenodd" clip-rule="evenodd" d="M19.0059 12.0284V9.03711H21.0059V12.0284H19.0059Z" fill="white"/>
<path fill-rule="evenodd" clip-rule="evenodd" d="M27.9727 19.0049H30.9739V21.0049H27.9727V19.0049Z" fill="white"/>
<path fill-rule="evenodd" clip-rule="evenodd" d="M9.03711 19.0049H12.0284V21.0049H9.03711V19.0049Z" fill="white"/>
<path d="M20.0059 18.0108C21.1027 18.0108 22.0001 18.9082 22.0001 20.005C22.0001 21.1018 21.1027 21.9992 20.0059 21.9992C18.9091 21.9992 18.0118 21.1018 18.0118 20.005C18.0118 18.9082 18.9091 18.0108 20.0059 18.0108ZM20.0059 16.0166C17.8024 16.0166 16.0176 17.8014 16.0176 20.005C16.0176 22.2085 17.8024 23.9933 20.0059 23.9933C22.2095 23.9933 23.9943 22.2085 23.9943 20.005C23.9943 17.8014 22.2095 16.0166 20.0059 16.0166Z" fill="white"/>
</svg>
