<svg width="266" height="40" viewBox="0 0 266 40" fill="none" xmlns="http://www.w3.org/2000/svg">
<path d="M38.7564 15.4121V1.13211H45.7164L48.9764 10.5521H49.0164L52.2764 1.13211H59.2364V15.4121H54.7564V4.73211H54.7164L50.9564 15.4121H47.0364L43.2764 4.73211H43.2364V15.4121H38.7564ZM62.1758 15.4121V1.13211H66.9358V15.4121H62.1758ZM68.0097 15.4121L74.2097 7.99211L68.6697 1.13211H74.3297L76.9497 4.97211L79.5697 1.13211H85.2297L79.6897 7.99211L85.8897 15.4121H79.9897L76.9497 11.0921L73.9097 15.4121H68.0097ZM17.1516 29.3121H11.7516C11.6116 28.3321 10.8316 27.6521 8.65164 27.6521C7.05164 27.6521 6.17164 28.1121 6.17164 29.0521C6.17164 29.5321 6.51164 29.8121 7.23164 29.9321C8.43164 30.1321 12.0916 30.6721 13.4916 30.9121C16.1516 31.3721 17.7516 32.4521 17.7516 34.9721C17.7516 39.8121 11.4716 39.8521 9.51164 39.8521C4.67164 39.8521 1.17164 38.9921 0.891641 35.0121H6.53164C6.65164 36.0921 7.25164 36.7721 9.73164 36.7721C10.9316 36.7721 12.2316 36.4921 12.2316 35.2721C12.2316 34.5121 11.6316 34.2521 9.97164 33.9921L5.21164 33.2721C2.27164 32.8321 1.13164 31.3521 1.13164 29.2321C1.13164 27.3521 2.29164 24.6921 8.55164 24.6921C13.7316 24.6921 16.8516 25.9321 17.1516 29.3121ZM31.6251 39.4121V33.4321H24.4051V39.4121H19.6451V25.1321H24.4051V30.2321H31.6251V25.1321H36.3851V39.4121H31.6251ZM37.274 39.4121L43.474 25.1321H49.294L55.434 39.4121H50.334L49.474 37.0921H43.234L42.374 39.4121H37.274ZM48.354 34.1321L46.374 28.7321H46.334L44.354 34.1321H48.354ZM61.0652 28.3321V31.4521H65.6452C66.8052 31.4521 67.4252 30.8521 67.4252 29.8721C67.4252 28.9321 66.8052 28.3321 65.6452 28.3321H61.0652ZM56.3052 39.4121V25.1321H67.7452C71.2452 25.1321 72.5252 26.7321 72.5252 29.1121C72.5252 31.0121 71.5252 32.0521 70.2452 32.3721V32.4121C71.1452 32.7121 71.8452 33.4321 71.9652 34.9721C72.1852 37.7921 72.2652 38.6921 72.8652 39.4121H67.6452C67.3852 38.7921 67.3652 37.9521 67.3652 37.2921C67.3652 35.0521 66.6252 34.6521 65.4252 34.6521H61.0652V39.4121H56.3052ZM74.8209 39.4121V25.1321H89.1209V28.2121H79.5809V30.7921H88.5209V33.7521H79.5809V36.3321H89.1209V39.4121H74.8209Z" fill="white"/>
<path d="M93.9148 8.27211C93.9148 2.35211 98.1748 0.692108 103.215 0.692108C108.255 0.692108 112.515 2.35211 112.515 8.27211C112.515 14.1921 108.255 15.8521 103.215 15.8521C98.1748 15.8521 93.9148 14.1921 93.9148 8.27211ZM98.9548 8.27211C98.9548 11.2721 100.675 12.6521 103.215 12.6521C105.775 12.6521 107.475 11.2721 107.475 8.27211C107.475 5.29211 105.775 3.89211 103.215 3.89211C100.675 3.89211 98.9548 5.29211 98.9548 8.27211ZM114.455 10.3721V1.13211H119.215V9.59211C119.215 11.9121 120.295 12.6521 122.475 12.6521C124.655 12.6521 125.735 11.9121 125.735 9.59211V1.13211H130.495V10.3721C130.495 14.3121 127.535 15.8521 122.475 15.8521C117.415 15.8521 114.455 14.3121 114.455 10.3721ZM137.93 4.33211V7.45211H142.51C143.67 7.45211 144.29 6.85211 144.29 5.87211C144.29 4.93211 143.67 4.33211 142.51 4.33211H137.93ZM133.17 15.4121V1.13211H144.61C148.11 1.13211 149.39 2.73211 149.39 5.11211C149.39 7.01211 148.39 8.05211 147.11 8.37211V8.41211C148.01 8.71211 148.71 9.43211 148.83 10.9721C149.05 13.7921 149.13 14.6921 149.73 15.4121H144.51C144.25 14.7921 144.23 13.9521 144.23 13.2921C144.23 11.0521 143.49 10.6521 142.29 10.6521H137.93V15.4121H133.17ZM164.2 4.09211V7.69211H168.44C169.76 7.69211 170.34 7.15211 170.34 5.89211C170.34 4.63211 169.76 4.09211 168.44 4.09211H164.2ZM159.44 15.4121V1.13211H170C173.88 1.13211 175.26 3.19211 175.26 5.89211C175.26 8.25211 174.06 10.6521 170.22 10.6521H164.2V15.4121H159.44ZM177.273 15.4121V1.13211H182.033V15.4121H177.273ZM184.967 15.4121V1.13211H190.447L197.067 10.0721H197.107V1.13211H201.707V15.4121H196.447L189.607 6.39211H189.567V15.4121H184.967ZM219.876 5.31211H214.476C214.336 4.33211 213.556 3.65211 211.376 3.65211C209.776 3.65211 208.896 4.11211 208.896 5.05211C208.896 5.53211 209.236 5.81211 209.956 5.93211C211.156 6.13211 214.816 6.67211 216.216 6.91211C218.876 7.37211 220.476 8.45211 220.476 10.9721C220.476 15.8121 214.196 15.8521 212.236 15.8521C207.396 15.8521 203.896 14.9921 203.616 11.0121H209.256C209.376 12.0921 209.976 12.7721 212.456 12.7721C213.656 12.7721 214.956 12.4921 214.956 11.2721C214.956 10.5121 214.356 10.2521 212.696 9.99211L207.936 9.27211C204.996 8.83211 203.856 7.35211 203.856 5.23211C203.856 3.35211 205.016 0.692108 211.276 0.692108C216.456 0.692108 219.576 1.93211 219.876 5.31211ZM222.57 15.4121V11.4521H227.05V13.9921C227.05 17.0921 225.63 19.0521 222.57 19.3321V17.6921C224.03 17.4321 224.47 16.3121 224.55 15.4121H222.57ZM98.1434 32.2721C98.1434 26.3521 102.403 24.6921 107.443 24.6921C112.483 24.6921 116.743 26.3521 116.743 32.2721C116.743 38.1921 112.483 39.8521 107.443 39.8521C102.403 39.8521 98.1434 38.1921 98.1434 32.2721ZM103.183 32.2721C103.183 35.2721 104.903 36.6521 107.443 36.6521C110.003 36.6521 111.703 35.2721 111.703 32.2721C111.703 29.2921 110.003 27.8921 107.443 27.8921C104.903 27.8921 103.183 29.2921 103.183 32.2721ZM118.683 34.3721V25.1321H123.443V33.5921C123.443 35.9121 124.523 36.6521 126.703 36.6521C128.883 36.6521 129.963 35.9121 129.963 33.5921V25.1321H134.723V34.3721C134.723 38.3121 131.763 39.8521 126.703 39.8521C121.643 39.8521 118.683 38.3121 118.683 34.3721ZM142.159 28.3321V31.4521H146.739C147.899 31.4521 148.519 30.8521 148.519 29.8721C148.519 28.9321 147.899 28.3321 146.739 28.3321H142.159ZM137.399 39.4121V25.1321H148.839C152.339 25.1321 153.619 26.7321 153.619 29.1121C153.619 31.0121 152.619 32.0521 151.339 32.3721V32.4121C152.239 32.7121 152.939 33.4321 153.059 34.9721C153.279 37.7921 153.359 38.6921 153.959 39.4121H148.739C148.479 38.7921 148.459 37.9521 148.459 37.2921C148.459 35.0521 147.719 34.6521 146.519 34.6521H142.159V39.4121H137.399ZM168.429 28.0921V31.6921H172.669C173.989 31.6921 174.569 31.1521 174.569 29.8921C174.569 28.6321 173.989 28.0921 172.669 28.0921H168.429ZM163.669 39.4121V25.1321H174.229C178.109 25.1321 179.489 27.1921 179.489 29.8921C179.489 32.2521 178.289 34.6521 174.449 34.6521H168.429V39.4121H163.669ZM181.442 39.4121V25.1321H186.202V36.0921H194.902V39.4121H181.442ZM194.637 39.4121L200.837 25.1321H206.657L212.797 39.4121H207.697L206.837 37.0921H200.597L199.737 39.4121H194.637ZM205.717 34.1321L203.737 28.7321H203.697L201.717 34.1321H205.717ZM225.669 33.9121H230.949C230.369 36.9921 228.669 39.8521 221.909 39.8521C215.869 39.8521 212.929 37.1921 212.929 32.2721C212.929 27.4921 215.709 24.6921 221.909 24.6921C226.269 24.6921 229.869 25.6921 230.909 30.6321H225.609C225.329 29.6121 224.629 27.8921 221.929 27.8921C218.949 27.8921 217.969 29.9121 217.969 32.2721C217.969 34.6321 218.849 36.6521 221.929 36.6521C224.069 36.6521 225.349 35.5721 225.669 33.9121ZM232.926 39.4121V25.1321H247.226V28.2121H237.686V30.7921H246.626V33.7521H237.686V36.3321H247.226V39.4121H232.926ZM264.515 29.3121H259.115C258.975 28.3321 258.195 27.6521 256.015 27.6521C254.415 27.6521 253.535 28.1121 253.535 29.0521C253.535 29.5321 253.875 29.8121 254.595 29.9321C255.795 30.1321 259.455 30.6721 260.855 30.9121C263.515 31.3721 265.115 32.4521 265.115 34.9721C265.115 39.8121 258.835 39.8521 256.875 39.8521C252.035 39.8521 248.535 38.9921 248.255 35.0121H253.895C254.015 36.0921 254.615 36.7721 257.095 36.7721C258.295 36.7721 259.595 36.4921 259.595 35.2721C259.595 34.5121 258.995 34.2521 257.335 33.9921L252.575 33.2721C249.635 32.8321 248.495 31.3521 248.495 29.2321C248.495 27.3521 249.655 24.6921 255.915 24.6921C261.095 24.6921 264.215 25.9321 264.515 29.3121Z" fill="black"/>
</svg>
