<svg width="416" height="89" viewBox="0 0 416 89" fill="none" xmlns="http://www.w3.org/2000/svg">
<path d="M207.666 89V0H246.728L259.458 52.3529H259.707L272.437 0H311.499V89H285.541V31.9104H285.291L269.816 89H249.349L233.874 31.9104H233.624V89H207.666Z" fill="white"/>
<path d="M0 89V0H39.0623L51.7919 52.3529H52.0415L64.771 0H103.833V89H77.875V31.9104H77.6254L62.1502 89H41.6831L26.2079 31.9104H25.9583V89H0Z" fill="white"/>
<path d="M103.832 89V0H142.894L155.624 52.3529H155.873L168.603 0H207.665V89H181.707V31.9104H181.457L165.982 89H145.515L130.04 31.9104H129.79V89H103.832Z" fill="black"/>
<path d="M311.5 89V0H350.562L363.292 52.3529H363.541L376.271 0H415.333V89H389.375V31.9104H389.125L373.65 89H353.183L337.708 31.9104H337.458V89H311.5Z" fill="black"/>
</svg>
