<svg width="193" height="27" viewBox="0 0 193 27" fill="none" xmlns="http://www.w3.org/2000/svg">
<path d="M183.411 8.9824C182.791 7.09899 180.74 6.01241 177.687 6.01241C172.869 6.01241 170.055 8.76509 170.055 13.4374C170.055 18.1459 172.678 20.9348 177.639 20.9348C181.956 20.9348 184.15 19.3955 184.222 16.9507H177.83V12.0248H192.999V15.6105C192.999 22.7458 186.559 26.9472 177.544 26.9472C167.526 26.9472 160.705 21.8041 160.705 13.5098C160.705 4.88961 168.194 0 177.496 0C185.605 0 191.854 3.73059 192.617 8.9824H183.411Z" fill="white"/>
<path d="M156.271 0.359375V26.5822H148.686L135.855 12.4204H135.616V26.5822H126.553V0.359375H134.28L146.921 14.4487H147.207V0.359375H156.271Z" fill="white"/>
<path d="M121.878 0.359375V26.5822H112.814V0.359375H121.878Z" fill="white"/>
<path d="M81.7598 26.5822V0.359375H96.4518C104.179 0.359375 109.236 4.05375 109.236 9.55909C109.236 15.1731 104.036 18.6864 96.1656 18.6864H90.823V26.5822H81.7598ZM90.823 13.3259H94.353C97.7875 13.3259 99.7432 11.8771 99.7432 9.55909C99.7432 7.27727 97.7875 5.86472 94.353 5.86472H90.823V13.3259Z" fill="#F73A2C"/>
<path d="M77.3235 13.4736C77.3235 22.2025 69.9775 26.9472 60.628 26.9472C51.1831 26.9472 43.8848 22.1663 43.8848 13.4736C43.8848 4.74474 51.1831 0 60.628 0C69.9775 0 77.3235 4.74474 77.3235 13.4736ZM67.974 13.4736C67.974 8.65643 65.3504 6.01241 60.628 6.01241C55.8578 6.01241 53.2343 8.65643 53.2343 13.4736C53.2343 18.2908 55.8578 20.9348 60.628 20.9348C65.3504 20.9348 67.974 18.2908 67.974 13.4736Z" fill="white"/>
<path d="M0 0.359375H11.3053L19.5099 15.6077H19.9392L28.1439 0.359375H39.4491V26.5822H30.5767V11.1527H30.2904L22.4197 26.4011H16.9817L9.15869 11.0441H8.87248V26.5822H0V0.359375Z" fill="white"/>
</svg>
