<svg width="216" height="39" viewBox="0 0 216 39" fill="none" xmlns="http://www.w3.org/2000/svg">
<path d="M208.862 37.5394L208.503 33.7906C205.986 37.0259 202.084 38.4124 198.078 38.4124C187.242 38.4124 180.566 29.9905 180.566 19.5657C180.566 5.59753 190.375 0 198.643 0C207.989 0 213.895 5.084 215.538 13.7114H204.703C204.292 11.041 202.032 9.14093 199.362 9.14093C191.607 9.14093 191.864 17.3061 191.864 19.8225C191.864 23.2631 193.251 29.2715 200.132 29.2715C202.751 29.2715 205.422 27.9363 205.986 25.2146H201.005V17.3575H216V37.5394H208.862Z" fill="black"/>
<path d="M142.729 37.5395V0.873047H154.283L164.965 20.4901H165.067V0.873047H175.749V37.5395H164.759L153.513 17.5116H153.41V37.5395H142.729Z" fill="black"/>
<path d="M125.576 37.5395V0.873047H136.874V37.5395H125.576Z" fill="black"/>
<path d="M89.418 37.5395V0.873047H108.316C118.279 0.873047 121.771 8.16525 121.771 13.4033C121.771 22.2875 115.814 26.4471 107.392 26.4471H100.716V37.5395H89.418ZM100.716 10.2707V17.717H105.081C108.008 17.717 111.089 17.5116 111.089 13.8141C111.089 10.4762 108.521 10.2707 105.748 10.2707H100.716Z" fill="black"/>
<path d="M47.4668 19.2062C47.4668 8.01115 54.9131 0 66.0568 0C77.2005 0 84.6467 8.01115 84.6467 19.2062C84.6467 30.4013 77.2005 38.4124 66.0568 38.4124C54.9131 38.4124 47.4668 30.4013 47.4668 19.2062ZM58.7646 19.2062C58.7646 27.3714 63.181 29.2715 66.0568 29.2715C68.9326 29.2715 73.349 27.3714 73.349 19.2062C73.349 11.041 68.9326 9.14093 66.0568 9.14093C63.181 9.14093 58.7646 11.041 58.7646 19.2062Z" fill="black"/>
<path d="M0 37.5395V0.873047H16.0737L21.3117 22.4415H21.4144L26.6525 0.873047H42.7261V37.5395H32.0446V14.0195H31.9419L25.5741 37.5395H17.1521L10.7842 14.0195H10.6815V37.5395H0Z" fill="black"/>
</svg>
