<svg width="194" height="213" viewBox="0 0 194 213" fill="none" xmlns="http://www.w3.org/2000/svg">
<g filter="url(#filter0_d_2183_140300)">
<path fill-rule="evenodd" clip-rule="evenodd" d="M43.402 22C31.582 22 22 31.582 22 43.402V150.412C22 162.232 31.582 171.814 43.402 171.814H75.5054L93.1226 189.431C95.2122 191.521 98.5999 191.521 100.689 189.431L118.307 171.814H150.412C162.232 171.814 171.814 162.232 171.814 150.412V43.402C171.814 31.582 162.232 22 150.412 22H43.402Z" fill="#F73A2C"/>
<rect x="38.0518" y="38.0518" width="117.711" height="117.711" rx="10.701" fill="#F73A2C" stroke="black" stroke-width="10.701"/>
<path fill-rule="evenodd" clip-rule="evenodd" d="M93.3418 129.011V111.176H100.476V129.011L96.9088 132.578L93.3418 129.011Z" fill="black"/>
<path fill-rule="evenodd" clip-rule="evenodd" d="M111.177 68.3723H82.6406V61.2383L111.177 61.2383V68.3723Z" fill="black"/>
<path d="M107.61 71.9375H86.2076L82.6406 96.9065H111.177L107.61 71.9375Z" fill="black"/>
<path fill-rule="evenodd" clip-rule="evenodd" d="M118.31 107.611H75.5059V100.477H118.31V107.611Z" fill="black"/>
</g>
<defs>
<filter id="filter0_d_2183_140300" x="0.597969" y="0.597969" width="192.619" height="211.804" filterUnits="userSpaceOnUse" color-interpolation-filters="sRGB">
<feFlood flood-opacity="0" result="BackgroundImageFix"/>
<feColorMatrix in="SourceAlpha" type="matrix" values="0 0 0 0 0 0 0 0 0 0 0 0 0 0 0 0 0 0 127 0" result="hardAlpha"/>
<feOffset/>
<feGaussianBlur stdDeviation="10.701"/>
<feComposite in2="hardAlpha" operator="out"/>
<feColorMatrix type="matrix" values="0 0 0 0 0.0196078 0 0 0 0 0.0901961 0 0 0 0 0.168627 0 0 0 0.4 0"/>
<feBlend mode="normal" in2="BackgroundImageFix" result="effect1_dropShadow_2183_140300"/>
<feBlend mode="normal" in="SourceGraphic" in2="effect1_dropShadow_2183_140300" result="shape"/>
</filter>
</defs>
</svg>
