<svg width="20" height="20" viewBox="0 0 20 20" fill="none" xmlns="http://www.w3.org/2000/svg">
<g id="?&#235;&#141;&#137;&#236;&#148;&#160;??2">
<path id="Vector" d="M8.00994 2.02836C11.3103 2.02836 13.9925 4.71054 13.9925 8.01091C13.9925 11.3113 11.3103 13.9935 8.00994 13.9935C4.70956 13.9935 2.02739 11.3113 2.02739 8.01091C2.02739 4.71054 4.70956 2.02836 8.00994 2.02836ZM8.00994 0.0341797C3.60279 0.0341797 0.0332031 3.60377 0.0332031 8.01091C0.0332031 12.4181 3.60279 15.9876 8.00994 15.9876C12.4171 15.9876 15.9867 12.4181 15.9867 8.01091C15.9867 3.60377 12.4071 0.0341797 8.00994 0.0341797Z" fill="#2D2D2D"/>
<path id="Vector (Stroke)" fill-rule="evenodd" clip-rule="evenodd" d="M13.8419 12.4287L19.6849 18.2717L18.2707 19.6859L12.4277 13.8429L13.8419 12.4287Z" fill="#2D2D2D"/>
</g>
</svg>
