<svg width="64" height="64" viewBox="0 0 64 64" fill="none" xmlns="http://www.w3.org/2000/svg">
<g clip-path="url(#clip0_1757_60684)">
<path d="M59 0H5C2.23858 0 0 2.23858 0 5V59C0 61.7614 2.23858 64 5 64H59C61.7614 64 64 61.7614 64 59V5C64 2.23858 61.7614 0 59 0Z" fill="white"/>
<path d="M59.4727 2.52734H4.52734C3.42277 2.52734 2.52734 3.42277 2.52734 4.52734V59.4726C2.52734 60.5772 3.42277 61.4726 4.52734 61.4726H59.4727C60.5772 61.4726 61.4727 60.5772 61.4727 59.4726V4.52734C61.4727 3.42277 60.5772 2.52734 59.4727 2.52734Z" fill="#3A91EA"/>
<path d="M56.6816 6.31836H7.31836C6.76607 6.31836 6.31836 6.76607 6.31836 7.31836V56.6816C6.31836 57.2339 6.76607 57.6816 7.31836 57.6816H56.6816C57.2339 57.6816 57.6816 57.2339 57.6816 56.6816V7.31836C57.6816 6.76607 57.2339 6.31836 56.6816 6.31836Z" fill="white"/>
<path d="M53.6702 48.207H10.3304C10.135 48.207 9.97656 48.3654 9.97656 48.5609V53.6686C9.97656 53.864 10.135 54.0225 10.3304 54.0225H53.6702C53.8656 54.0225 54.024 53.864 54.024 53.6686V48.5609C54.024 48.3654 53.8656 48.207 53.6702 48.207Z" fill="#3A91EA"/>
<path d="M32.0008 16.4434C26.3488 16.4434 21.7676 21.0979 21.7676 27.6463C21.7676 36.3664 32.0008 43.4354 32.0008 43.4354C32.0008 43.4354 42.234 36.3664 42.234 27.6463C42.234 21.0979 37.6528 16.4434 32.0008 16.4434ZM32.0008 30.0649C30.2494 30.0649 28.829 28.6454 28.829 26.8931C28.829 25.1408 30.2485 23.7213 32.0008 23.7213C33.7531 23.7213 35.1726 25.1408 35.1726 26.8931C35.1726 28.6454 33.7531 30.0649 32.0008 30.0649Z" fill="#3A91EA"/>
</g>
<defs>
<clipPath id="clip0_1757_60684">
<rect width="64" height="64" fill="white"/>
</clipPath>
</defs>
</svg>
