<svg width="64" height="64" viewBox="0 0 64 64" fill="none" xmlns="http://www.w3.org/2000/svg">
<g clip-path="url(#clip0_3158_104673)">
<path d="M60 0H4C1.79086 0 0 1.79086 0 4V60C0 62.2091 1.79086 64 4 64H60C62.2091 64 64 62.2091 64 60V4C64 1.79086 62.2091 0 60 0Z" fill="#3A91EA"/>
<path d="M59.4707 2.52539H4.52539C3.42082 2.52539 2.52539 3.42082 2.52539 4.52539V59.4707C2.52539 60.5753 3.42082 61.4707 4.52539 61.4707H59.4707C60.5753 61.4707 61.4707 60.5753 61.4707 59.4707V4.52539C61.4707 3.42082 60.5753 2.52539 59.4707 2.52539Z" fill="black"/>
<path d="M57.9453 5.05469H6.05469C5.5024 5.05469 5.05469 5.5024 5.05469 6.05469V57.9453C5.05469 58.4976 5.5024 58.9453 6.05469 58.9453H57.9453C58.4976 58.9453 58.9453 58.4976 58.9453 57.9453V6.05469C58.9453 5.5024 58.4976 5.05469 57.9453 5.05469Z" fill="#3A91EA"/>
<path d="M32 12L35.7082 15.5873L40.8168 14.8647L41.7082 19.9466L46.2658 22.3647L44 27L46.2658 31.6353L41.7082 34.0534L40.8168 39.1353L35.7082 38.4127L32 42L28.2918 38.4127L23.1832 39.1353L22.2918 34.0534L17.7342 31.6353L20 27L17.7342 22.3647L22.2918 19.9466L23.1832 14.8647L28.2918 15.5873L32 12Z" fill="black" stroke="black" stroke-width="4" stroke-linejoin="bevel"/>
<path d="M38 38V52L32 47L26 52V38" stroke="black" stroke-width="4" stroke-linejoin="bevel"/>
<path d="M27 32.3477V22.3477L32 27.681L37 22.3477V32.3477" stroke="#3A91EA" stroke-width="3.03158" stroke-linejoin="bevel"/>
</g>
<defs>
<clipPath id="clip0_3158_104673">
<rect width="64" height="64" fill="white"/>
</clipPath>
</defs>
</svg>
