<svg width="45" height="50" viewBox="0 0 45 50" fill="none" xmlns="http://www.w3.org/2000/svg">
<g filter="url(#filter0_d_2527_72995)">
<path fill-rule="evenodd" clip-rule="evenodd" d="M10 5C7.23858 5 5 7.23858 5 10V35C5 37.7614 7.23858 40 10 40H17.5L27.5 40H35C37.7614 40 40 37.7614 40 35V10C40 7.23858 37.7614 5 35 5H10Z" fill="#FCB0AB"/>
<rect x="8.75" y="8.75" width="27.5" height="27.5" rx="2.5" fill="#FCB0AB" stroke="black" stroke-width="2.5"/>
<rect width="20" height="20" transform="translate(12.5 12.5977)" fill="#FCB0AB"/>
<path fill-rule="evenodd" clip-rule="evenodd" d="M21.666 30.0983V25.9316H23.3327V30.0983L22.4993 30.9316L21.666 30.0983Z" fill="black"/>
<path fill-rule="evenodd" clip-rule="evenodd" d="M25.8327 15.9323L19.166 15.9323V14.2656L25.8327 14.2656V15.9323Z" fill="black"/>
<path d="M24.9993 16.7656H19.9993L19.166 22.599H25.8327L24.9993 16.7656Z" fill="black"/>
<path fill-rule="evenodd" clip-rule="evenodd" d="M27.5 25.0983H17.5V23.4316H27.5V25.0983Z" fill="black"/>
</g>
<defs>
<filter id="filter0_d_2527_72995" x="0" y="0" width="45" height="50" filterUnits="userSpaceOnUse" color-interpolation-filters="sRGB">
<feFlood flood-opacity="0" result="BackgroundImageFix"/>
<feColorMatrix in="SourceAlpha" type="matrix" values="0 0 0 0 0 0 0 0 0 0 0 0 0 0 0 0 0 0 127 0" result="hardAlpha"/>
<feOffset/>
<feGaussianBlur stdDeviation="2.5"/>
<feComposite in2="hardAlpha" operator="out"/>
<feColorMatrix type="matrix" values="0 0 0 0 0.0196078 0 0 0 0 0.0901961 0 0 0 0 0.168627 0 0 0 0.4 0"/>
<feBlend mode="normal" in2="BackgroundImageFix" result="effect1_dropShadow_2527_72995"/>
<feBlend mode="normal" in="SourceGraphic" in2="effect1_dropShadow_2527_72995" result="shape"/>
</filter>
</defs>
</svg>
