<svg width="64" height="64" viewBox="0 0 64 64" fill="none" xmlns="http://www.w3.org/2000/svg">
<g clip-path="url(#clip0_1757_60690)">
<path d="M60 0H4C1.79086 0 0 1.79086 0 4V60C0 62.2091 1.79086 64 4 64H60C62.2091 64 64 62.2091 64 60V4C64 1.79086 62.2091 0 60 0Z" fill="#FFC63F"/>
<path d="M59.4707 2.52539H4.52539C3.42082 2.52539 2.52539 3.42082 2.52539 4.52539V59.4707C2.52539 60.5753 3.42082 61.4707 4.52539 61.4707H59.4707C60.5753 61.4707 61.4707 60.5753 61.4707 59.4707V4.52539C61.4707 3.42082 60.5753 2.52539 59.4707 2.52539Z" fill="#1D1D1D"/>
<path d="M57.9453 5.05469H6.05469C5.5024 5.05469 5.05469 5.5024 5.05469 6.05469V57.9453C5.05469 58.4976 5.5024 58.9453 6.05469 58.9453H57.9453C58.4976 58.9453 58.9453 58.4976 58.9453 57.9453V6.05469C58.9453 5.5024 58.4976 5.05469 57.9453 5.05469Z" fill="#FFC63F"/>
<path d="M33.0368 47.5073C33.0368 44.7205 35.266 42.4552 38.0393 42.3945C38.5684 39.4956 41.105 37.2968 44.1563 37.2968C45.8303 37.2968 47.3484 37.959 48.4663 39.034C49.4629 38.1224 50.0897 36.8124 50.0897 35.3558C50.0897 34.5024 49.8749 33.6987 49.4966 32.997C50.3761 32.0981 50.9187 30.869 50.9187 29.5126C50.9187 28.8631 50.7932 28.2439 50.5674 27.6744C50.5691 27.6163 50.5716 27.559 50.5716 27.5009C50.5716 26.024 49.9288 24.6989 48.9086 23.7857C48.6744 22.2179 47.7098 20.8885 46.3711 20.1555C45.9651 18.5709 44.7991 17.2912 43.2844 16.7268C42.4158 15.2634 40.8211 14.2811 38.9955 14.2811C38.3864 14.2811 37.8034 14.3907 37.2643 14.5903C36.3519 13.4311 34.9366 12.6855 33.3469 12.6855C32.4387 12.6855 31.5878 12.9299 30.8549 13.3536C30.122 12.929 29.2711 12.6855 28.3629 12.6855C27.0816 12.6855 25.9139 13.1691 25.0311 13.9635C24.871 13.9484 24.7084 13.9391 24.5433 13.9391C23.0319 13.9391 21.679 14.6122 20.7657 15.6746C19.4852 16.0267 18.4119 16.8759 17.7649 18.0031C15.8997 18.7234 14.5763 20.533 14.5763 22.6526C14.5763 22.7073 14.5788 22.7621 14.5805 22.816C13.6546 23.7208 13.0801 24.9828 13.0801 26.3787C13.0801 27.0426 13.2115 27.6761 13.4465 28.2557C13.2107 28.8353 13.0801 29.468 13.0801 30.1327C13.0801 30.7974 13.2132 31.4435 13.4541 32.0273C13.214 32.612 13.0801 33.2514 13.0801 33.922C13.0801 34.462 13.1668 34.9818 13.3261 35.4687C13.1668 35.9557 13.0801 36.4755 13.0801 37.0155C13.0801 38.4358 13.6757 39.7164 14.6285 40.6245C14.5948 40.8587 14.5763 41.0988 14.5763 41.3423C14.5763 43.8081 16.3673 45.8544 18.7194 46.2538C19.3319 47.8679 20.7582 49.0793 22.4978 49.3902C23.3108 49.9656 24.3023 50.3051 25.3731 50.3051C25.7227 50.3051 26.0639 50.2689 26.3933 50.1998C27.2492 50.8931 28.3394 51.3093 29.5272 51.3093C30.2037 51.3093 30.849 51.1737 31.437 50.9294C32.0251 51.1737 32.6704 51.3093 33.3469 51.3093C33.7689 51.3093 34.1792 51.2554 34.571 51.1568C33.624 50.2284 33.036 48.9353 33.036 47.5048L33.0368 47.5073Z" fill="#1D1D1D"/>
<path d="M38.7133 45.6797L38.5119 47.2635C38.4934 47.4092 38.538 47.5558 38.6341 47.6679L39.731 48.9374C39.9087 49.143 40.2145 49.1767 40.4319 49.0141L42.661 47.3562C42.9887 47.1127 42.9188 46.603 42.5372 46.4564L39.4134 45.261C39.1 45.1414 38.7571 45.3461 38.7141 45.6797H38.7133Z" fill="#1D1D1D"/>
<path d="M44.9361 41.9044L44.7323 42.19C44.5503 42.4452 44.5444 42.7864 44.7188 43.0467L45.1156 43.6415C45.3439 43.9835 45.8039 44.0804 46.1501 43.858L46.477 43.6482C46.8502 43.409 46.9378 42.9018 46.6665 42.5514L46.1476 41.8808C45.8384 41.4806 45.231 41.4924 44.937 41.9044H44.9361Z" fill="#1D1D1D"/>
<path d="M47.0432 47.2986L46.2681 48.136C46.0525 48.3685 46.1578 48.7459 46.4619 48.8344L47.6716 49.1865C47.8898 49.2497 48.119 49.1309 48.1931 48.9169L48.3473 48.473C48.5697 47.831 48.0929 47.1621 47.4139 47.1621H47.3566C47.2378 47.1621 47.1249 47.2118 47.044 47.2986H47.0432Z" fill="#1D1D1D"/>
<path d="M32.2387 19.1835L32.0416 20.0521C32.0146 20.17 32.018 20.2922 32.05 20.4085L32.264 21.1785C32.3516 21.4935 32.638 21.7117 32.9657 21.7117H34.6793C35.0811 21.7117 35.4071 21.3857 35.4071 20.9838V19.8676C35.4071 19.5466 35.1965 19.2636 34.8899 19.1709L33.1603 18.6486C32.756 18.5264 32.333 18.7724 32.2395 19.1844L32.2387 19.1835Z" fill="#FFC63F"/>
<path d="M28.8628 28.9103L28.2764 30.2203C28.1762 30.4444 28.1955 30.703 28.3278 30.9094L28.9377 31.8639C29.1062 32.1276 29.4238 32.254 29.7279 32.1781L31.5628 31.7199C32.0245 31.6044 32.2536 31.0846 32.0261 30.666L31.5704 29.8269C31.5156 29.7258 31.4381 29.6398 31.3438 29.5741L29.9402 28.607C29.5654 28.3492 29.0481 28.4941 28.8628 28.9094V28.9103Z" fill="#FFC63F"/>
<path d="M42.2891 24.5531L41.327 25.3147C40.9858 25.5843 40.9563 26.0914 41.263 26.3989L42.1711 27.3105C42.3657 27.5059 42.6547 27.575 42.9175 27.4874L43.9858 27.131C44.4609 26.9726 44.6378 26.393 44.3329 25.9962L43.3186 24.6787C43.0709 24.3568 42.6075 24.2995 42.2899 24.5523L42.2891 24.5531Z" fill="#FFC63F"/>
<path d="M18.4161 31.9775L17.6006 33.2572C17.481 33.4442 17.454 33.6759 17.5256 33.8856L17.9848 35.2209C18.1474 35.6935 18.7261 35.8654 19.1204 35.5587L20.1229 34.7795C20.3697 34.5874 20.4666 34.2588 20.363 33.9631L19.7177 32.1274C19.5163 31.5546 18.7438 31.4653 18.4169 31.9775H18.4161Z" fill="#FFC63F"/>
<path d="M19.7949 22.3938V23.1755C19.7949 23.2943 19.8236 23.4114 19.8792 23.5159L20.1976 24.1174C20.3846 24.4695 20.8202 24.6069 21.1749 24.4241L22.8538 23.5589C23.0965 23.4342 23.2481 23.184 23.2481 22.9119V22.1107C23.2481 21.7088 22.9221 21.3828 22.5202 21.3828H21.0476C20.9272 21.3828 20.8084 21.4123 20.7022 21.4696L20.1774 21.7518C19.9415 21.879 19.7949 22.125 19.7949 22.3929V22.3938Z" fill="#FFC63F"/>
<path d="M25.0292 38.6184L23.6627 39.904C23.4193 40.1332 23.3628 40.4988 23.5271 40.7911L24.3519 42.2595C24.522 42.5628 24.8843 42.7035 25.2145 42.594L26.1193 42.2957C26.4555 42.1845 26.6635 41.8475 26.6113 41.4979L26.2474 39.0422C26.1615 38.4601 25.4563 38.2158 25.0284 38.6184H25.0292Z" fill="#FFC63F"/>
<path d="M37.7794 32.0133L37.2706 33.0748C37.1897 33.2433 37.1771 33.4371 37.2352 33.6148L37.6042 34.7479C37.771 35.2618 38.4197 35.4211 38.8055 35.0428L39.9336 33.9392C40.2133 33.6654 40.2267 33.2197 39.9639 32.9299L38.9757 31.839C38.6286 31.4556 38.0027 31.5466 37.7794 32.0125V32.0133Z" fill="#FFC63F"/>
</g>
<defs>
<clipPath id="clip0_1757_60690">
<rect width="64" height="64" fill="white"/>
</clipPath>
</defs>
</svg>
