<svg width="64" height="64" viewBox="0 0 64 64" fill="none" xmlns="http://www.w3.org/2000/svg">
<g clip-path="url(#clip0_1757_60688)">
<path d="M60 0H4C1.79086 0 0 1.79086 0 4V60C0 62.2091 1.79086 64 4 64H60C62.2091 64 64 62.2091 64 60V4C64 1.79086 62.2091 0 60 0Z" fill="#3A91EA"/>
<path d="M59.4727 2.52734H4.52734C3.42277 2.52734 2.52734 3.42277 2.52734 4.52734V59.4726C2.52734 60.5772 3.42277 61.4726 4.52734 61.4726H59.4727C60.5772 61.4726 61.4727 60.5772 61.4727 59.4726V4.52734C61.4727 3.42277 60.5772 2.52734 59.4727 2.52734Z" fill="white"/>
<path d="M54.5749 8.42383H9.42383C8.87154 8.42383 8.42383 8.87154 8.42383 9.42383V54.5748C8.42383 55.1271 8.87154 55.5748 9.42383 55.5748H54.5749C55.1271 55.5748 55.5749 55.1271 55.5749 54.5748V9.42383C55.5749 8.87154 55.1271 8.42383 54.5749 8.42383Z" fill="#3A91EA"/>
<path d="M45.8786 29.3891V47.6862C45.8786 47.8884 45.7143 48.0527 45.5121 48.0527H39.4777C39.2755 48.0527 39.1112 47.8884 39.1112 47.6862V31.3469C39.1112 30.2661 38.235 29.3891 37.1533 29.3891H30.7499V35.6181C30.7499 35.9863 30.3565 36.1944 30.0835 35.972L24.3018 31.2601L18.2867 26.3588C18.0685 26.181 18.0685 25.8297 18.2867 25.652L24.3018 20.7506L30.0835 16.0388C30.3565 15.8164 30.7499 16.0245 30.7499 16.3926V22.6217H39.1112C40.9806 22.6217 42.6722 23.379 43.8971 24.604C45.1221 25.8289 45.8794 27.5205 45.8794 29.3891H45.8786Z" fill="white"/>
</g>
<defs>
<clipPath id="clip0_1757_60688">
<rect width="64" height="64" fill="white"/>
</clipPath>
</defs>
</svg>
