<svg width="64" height="64" viewBox="0 0 64 64" fill="none" xmlns="http://www.w3.org/2000/svg">
<g clip-path="url(#clip0_1757_60686)">
<path d="M60 0H4C1.79086 0 0 1.79086 0 4V60C0 62.2091 1.79086 64 4 64H60C62.2091 64 64 62.2091 64 60V4C64 1.79086 62.2091 0 60 0Z" fill="white"/>
<path d="M60.3158 1.68555H3.68555C2.58098 1.68555 1.68555 2.58097 1.68555 3.68554V60.3157C1.68555 61.4203 2.58098 62.3157 3.68554 62.3157H60.3158C61.4203 62.3157 62.3158 61.4203 62.3158 60.3158V3.68555C62.3158 2.58098 61.4203 1.68555 60.3158 1.68555Z" fill="#F96156"/>
<path d="M54.5749 8.42383H9.42383C8.87154 8.42383 8.42383 8.87154 8.42383 9.42383V54.5748C8.42383 55.1271 8.87154 55.5748 9.42383 55.5748H54.5749C55.1271 55.5748 55.5749 55.1271 55.5749 54.5748V9.42383C55.5749 8.87154 55.1271 8.42383 54.5749 8.42383Z" fill="white"/>
<path d="M46.5558 32.002C46.5558 42.3506 36.8533 44.9386 32.0025 44.9386C27.1517 44.9386 17.4492 42.3514 17.4492 32.002" fill="#1D1D1D"/>
<path d="M46.5558 32.002C46.5558 42.3506 36.8533 44.9386 32.0025 44.9386C27.1517 44.9386 17.4492 42.3514 17.4492 32.002" stroke="#1D1D1D" stroke-width="2.43215" stroke-linecap="round" stroke-linejoin="round"/>
<path d="M27.1504 46.5566H36.8529" stroke="#1D1D1D" stroke-width="2.43215"/>
<path d="M18.2246 29.0919C18.2246 30.8383 19.2448 31.7599 19.7553 32.0025H44.2479C44.7584 31.7329 45.7786 30.7742 45.7786 29.0919C45.7786 27.4095 44.7584 26.5586 44.2479 26.343C44.2479 23.7558 42.2066 23.2166 41.1864 23.2705C41.1864 20.942 39.1451 20.3599 38.1249 20.3599C37.6144 19.2815 35.6759 17.4492 32.002 17.4492C28.3281 17.4492 26.3888 19.3894 25.8791 20.3599C23.4301 20.3599 22.8176 22.3 22.8176 23.2705C20.3686 23.2705 19.7562 25.2107 19.7562 26.1812C19.2457 26.4238 18.2255 27.3455 18.2255 29.0919H18.2246Z" stroke="#1D1D1D" stroke-width="2.36644" stroke-linejoin="round"/>
<path d="M20.0898 34.5938C20.0898 34.5938 20.7874 37.5946 23.2844 39.5457" stroke="white" stroke-width="1.6849" stroke-linecap="square" stroke-linejoin="round"/>
<path d="M26.2383 41.3457L26.4253 41.4569" stroke="white" stroke-width="1.6849" stroke-linecap="square" stroke-linejoin="round"/>
</g>
<defs>
<clipPath id="clip0_1757_60686">
<rect width="64" height="64" fill="white"/>
</clipPath>
</defs>
</svg>
