<svg width="33" height="32" viewBox="0 0 33 32" fill="none" xmlns="http://www.w3.org/2000/svg">
<g filter="url(#filter0_d_1723_34013)">
<path d="M21.7648 4.29416C21.5765 4.10581 21.321 4 21.0547 4H11.9453C11.679 4 11.4235 4.10581 11.2352 4.29416L4.79416 10.7352C4.60581 10.9235 4.5 11.179 4.5 11.4453V20.5547C4.5 20.821 4.60581 21.0765 4.79416 21.2648L11.2352 27.7058C11.4235 27.8942 11.679 28 11.9453 28H21.0547C21.321 28 21.5765 27.8942 21.7648 27.7058L28.2058 21.2648C28.3942 21.0765 28.5 20.821 28.5 20.5547V11.4453C28.5 11.179 28.3942 10.9235 28.2058 10.7352L21.7648 4.29416Z" fill="#8E8E8E"/>
<path d="M20.4158 6.54492H12.5832L7.04492 12.0832V19.9158L12.5832 25.454H20.4158L25.954 19.9158V12.0832L20.4158 6.54492Z" fill="white"/>
<path fill-rule="evenodd" clip-rule="evenodd" d="M15.875 22.625V19.5H17.125V22.625L16.5 23.25L15.875 22.625Z" fill="#8E8E8E"/>
<path fill-rule="evenodd" clip-rule="evenodd" d="M19 12L14 12V10.75L19 10.75V12Z" fill="#8E8E8E"/>
<path d="M18.375 12.625H14.625L14 17H19L18.375 12.625Z" fill="#8E8E8E"/>
<path fill-rule="evenodd" clip-rule="evenodd" d="M20.25 18.875H12.75V17.625H20.25V18.875Z" fill="#8E8E8E"/>
</g>
<defs>
<filter id="filter0_d_1723_34013" x="0.5" y="0" width="32" height="32" filterUnits="userSpaceOnUse" color-interpolation-filters="sRGB">
<feFlood flood-opacity="0" result="BackgroundImageFix"/>
<feColorMatrix in="SourceAlpha" type="matrix" values="0 0 0 0 0 0 0 0 0 0 0 0 0 0 0 0 0 0 127 0" result="hardAlpha"/>
<feOffset/>
<feGaussianBlur stdDeviation="2"/>
<feComposite in2="hardAlpha" operator="out"/>
<feColorMatrix type="matrix" values="0 0 0 0 0.0196078 0 0 0 0 0.0901961 0 0 0 0 0.168627 0 0 0 0.4 0"/>
<feBlend mode="normal" in2="BackgroundImageFix" result="effect1_dropShadow_1723_34013"/>
<feBlend mode="normal" in="SourceGraphic" in2="effect1_dropShadow_1723_34013" result="shape"/>
</filter>
</defs>
</svg>
