<svg width="29" height="32" viewBox="0 0 29 32" fill="none" xmlns="http://www.w3.org/2000/svg">
<path fill-rule="evenodd" clip-rule="evenodd" d="M4.5 0C2.29086 0 0.5 1.79086 0.5 4V24C0.5 26.2091 2.29086 28 4.5 28H10.5L13.7929 31.2929C14.1834 31.6834 14.8166 31.6834 15.2071 31.2929L18.5 28H24.5C26.7091 28 28.5 26.2091 28.5 24V4C28.5 1.79086 26.7091 0 24.5 0H4.5Z" fill="#F73A2C"/>
<rect x="3.5" y="3" width="22" height="22" rx="2" fill="#F73A2C" stroke="black" stroke-width="2"/>
<path fill-rule="evenodd" clip-rule="evenodd" d="M13.834 19.9993V16.666H15.1673V19.9993L14.5007 20.666L13.834 19.9993Z" fill="black"/>
<path fill-rule="evenodd" clip-rule="evenodd" d="M17.1673 8.66536L11.834 8.66536V7.33203L17.1673 7.33203V8.66536Z" fill="black"/>
<path d="M16.5007 9.33203H12.5007L11.834 13.9987H17.1673L16.5007 9.33203Z" fill="black"/>
<path fill-rule="evenodd" clip-rule="evenodd" d="M18.5 15.9993H10.5V14.666H18.5V15.9993Z" fill="black"/>
</svg>
