<svg width="29" height="32" viewBox="0 0 29 32" fill="none" xmlns="http://www.w3.org/2000/svg">
<path fill-rule="evenodd" clip-rule="evenodd" d="M4.5 0C2.29086 0 0.5 1.79086 0.5 4V24C0.5 26.2091 2.29086 28 4.5 28H10.5L13.7929 31.2929C14.1834 31.6834 14.8166 31.6834 15.2071 31.2929L18.5 28H24.5C26.7091 28 28.5 26.2091 28.5 24V4C28.5 1.79086 26.7091 0 24.5 0H4.5Z" fill="white"/>
<rect x="3.5" y="3" width="22" height="22" rx="2" fill="white" stroke="#3A91EA" stroke-width="2"/>
<g clip-path="url(#clip0_2112_226147)">
<path d="M23.25 4H5.75C5.05964 4 4.5 4.55964 4.5 5.25V22.75C4.5 23.4404 5.05964 24 5.75 24H23.25C23.9404 24 24.5 23.4404 24.5 22.75V5.25C24.5 4.55964 23.9404 4 23.25 4Z" fill="#FFC63F"/>
<path d="M23.0845 4.78906H5.91406C5.56888 4.78906 5.28906 5.06888 5.28906 5.41406V22.5845C5.28906 22.9296 5.56888 23.2095 5.91406 23.2095H23.0845C23.4296 23.2095 23.7095 22.9296 23.7095 22.5845V5.41406C23.7095 5.06888 23.4296 4.78906 23.0845 4.78906Z" fill="#1D1D1D"/>
<path d="M22.6084 5.58008H6.39258C6.21999 5.58008 6.08008 5.71999 6.08008 5.89258V22.1084C6.08008 22.281 6.21999 22.4209 6.39258 22.4209H22.6084C22.781 22.4209 22.9209 22.281 22.9209 22.1084V5.89258C22.9209 5.71999 22.781 5.58008 22.6084 5.58008Z" fill="#FFC63F"/>
<path d="M14.8244 18.8447C14.8244 17.9738 15.521 17.2659 16.3876 17.2469C16.553 16.341 17.3457 15.6539 18.2992 15.6539C18.8223 15.6539 19.2967 15.8608 19.6461 16.1968C19.9575 15.9119 20.1534 15.5025 20.1534 15.0474C20.1534 14.7807 20.0863 14.5295 19.9681 14.3102C20.2429 14.0293 20.4124 13.6452 20.4124 13.2214C20.4124 13.0184 20.3732 12.8249 20.3027 12.6469C20.3032 12.6287 20.304 12.6108 20.304 12.5927C20.304 12.1312 20.1031 11.7171 19.7843 11.4317C19.7111 10.9417 19.4097 10.5263 18.9913 10.2973C18.8645 9.80206 18.5001 9.40216 18.0267 9.22577C17.7553 8.76848 17.257 8.46152 16.6865 8.46152C16.4961 8.46152 16.3139 8.49574 16.1454 8.55813C15.8603 8.19588 15.418 7.96289 14.9213 7.96289C14.6375 7.96289 14.3716 8.03924 14.1425 8.17166C13.9135 8.03897 13.6476 7.96289 13.3638 7.96289C12.9634 7.96289 12.5985 8.114 12.3226 8.36226C12.2725 8.35753 12.2217 8.35463 12.1701 8.35463C11.6978 8.35463 11.275 8.56498 10.9897 8.89696C10.5895 9.007 10.2541 9.27237 10.0519 9.62462C9.46904 9.84971 9.05545 10.4152 9.05545 11.0776C9.05545 11.0947 9.05624 11.1118 9.05677 11.1287C8.76744 11.4114 8.58789 11.8058 8.58789 12.242C8.58789 12.4495 8.62896 12.6474 8.70241 12.8286C8.6287 13.0097 8.58789 13.2074 8.58789 13.4151C8.58789 13.6228 8.62949 13.8248 8.70478 14.0072C8.62975 14.1899 8.58789 14.3897 8.58789 14.5993C8.58789 14.768 8.61501 14.9305 8.66476 15.0826C8.61501 15.2348 8.58789 15.3972 8.58789 15.566C8.58789 16.0099 8.77402 16.41 9.07177 16.6938C9.06124 16.767 9.05545 16.842 9.05545 16.9181C9.05545 17.6887 9.61515 18.3282 10.3502 18.453C10.5416 18.9574 10.9873 19.336 11.5309 19.4331C11.785 19.6129 12.0948 19.719 12.4295 19.719C12.5387 19.719 12.6453 19.7077 12.7483 19.6861C13.0157 19.9028 13.3564 20.0328 13.7276 20.0328C13.939 20.0328 14.1407 19.9904 14.3244 19.9141C14.5082 19.9904 14.7099 20.0328 14.9213 20.0328C15.0532 20.0328 15.1814 20.016 15.3038 19.9852C15.0079 19.695 14.8241 19.2909 14.8241 18.8439L14.8244 18.8447Z" fill="#1D1D1D"/>
<path d="M16.5974 18.2744L16.5345 18.7694C16.5287 18.8149 16.5427 18.8607 16.5727 18.8957L16.9154 19.2925C16.971 19.3567 17.0665 19.3672 17.1345 19.3164L17.8311 18.7983C17.9335 18.7222 17.9116 18.563 17.7924 18.5171L16.8162 18.1436C16.7183 18.1062 16.6111 18.1702 16.5977 18.2744H16.5974Z" fill="#1D1D1D"/>
<path d="M18.5432 17.093L18.4794 17.1823C18.4226 17.2621 18.4207 17.3687 18.4752 17.45L18.5992 17.6359C18.6706 17.7428 18.8143 17.7731 18.9225 17.7036L19.0247 17.638C19.1413 17.5632 19.1687 17.4047 19.0839 17.2952L18.9217 17.0857C18.8251 16.9606 18.6353 16.9643 18.5434 17.093H18.5432Z" fill="#1D1D1D"/>
<path d="M19.2016 18.779L18.9594 19.0407C18.892 19.1133 18.9249 19.2313 19.0199 19.2589L19.398 19.369C19.4662 19.3887 19.5378 19.3516 19.561 19.2847L19.6091 19.146C19.6786 18.9454 19.5296 18.7363 19.3174 18.7363H19.2995C19.2624 18.7363 19.2271 18.7519 19.2019 18.779H19.2016Z" fill="#1D1D1D"/>
<path d="M14.5751 9.99339L14.5135 10.2648C14.5051 10.3017 14.5061 10.3398 14.5161 10.3762L14.583 10.6168C14.6104 10.7153 14.6999 10.7834 14.8023 10.7834H15.3378C15.4633 10.7834 15.5652 10.6816 15.5652 10.556V10.2072C15.5652 10.1069 15.4994 10.0184 15.4036 9.98944L14.8631 9.82622C14.7367 9.78804 14.6046 9.86492 14.5753 9.99365L14.5751 9.99339Z" fill="#FFC63F"/>
<path d="M13.5195 13.0334L13.3363 13.4427C13.3049 13.5128 13.311 13.5936 13.3523 13.6581L13.5429 13.9564C13.5956 14.0388 13.6948 14.0783 13.7899 14.0546L14.3633 13.9114C14.5075 13.8753 14.5791 13.7129 14.508 13.582L14.3656 13.3198C14.3485 13.2882 14.3243 13.2614 14.2948 13.2408L13.8562 12.9386C13.7391 12.858 13.5774 12.9033 13.5195 13.0331V13.0334Z" fill="#FFC63F"/>
<path d="M17.7151 11.6707L17.4144 11.9086C17.3078 11.9929 17.2986 12.1514 17.3944 12.2475L17.6782 12.5323C17.7391 12.5934 17.8293 12.615 17.9115 12.5876L18.2453 12.4762C18.3938 12.4268 18.4491 12.2456 18.3538 12.1216L18.0368 11.7099C17.9594 11.6093 17.8146 11.5914 17.7154 11.6704L17.7151 11.6707Z" fill="#FFC63F"/>
<path d="M10.2554 13.992L10.0006 14.3919C9.96317 14.4503 9.95475 14.5227 9.97713 14.5883L10.1206 15.0056C10.1714 15.1532 10.3523 15.207 10.4755 15.1111L10.7888 14.8676C10.8659 14.8076 10.8962 14.7049 10.8638 14.6125L10.6621 14.0388C10.5992 13.8598 10.3578 13.8319 10.2557 13.992H10.2554Z" fill="#FFC63F"/>
<path d="M10.6855 10.9976V11.2419C10.6855 11.279 10.6945 11.3156 10.7119 11.3482L10.8114 11.5362C10.8698 11.6462 11.0059 11.6892 11.1168 11.632L11.6415 11.3617C11.7173 11.3227 11.7647 11.2445 11.7647 11.1595V10.9091C11.7647 10.7835 11.6628 10.6816 11.5372 10.6816H11.077C11.0394 10.6816 11.0023 10.6909 10.9691 10.7088L10.8051 10.797C10.7314 10.8367 10.6855 10.9136 10.6855 10.9973V10.9976Z" fill="#FFC63F"/>
<path d="M12.3228 16.0659L11.8958 16.4677C11.8197 16.5393 11.8021 16.6536 11.8534 16.7449L12.1112 17.2038C12.1644 17.2986 12.2776 17.3425 12.3808 17.3083L12.6635 17.2151C12.7686 17.1803 12.8336 17.075 12.8173 16.9658L12.7035 16.1984C12.6767 16.0164 12.4563 15.9401 12.3226 16.0659H12.3228Z" fill="#FFC63F"/>
<path d="M16.3063 14.0023L16.1473 14.3341C16.122 14.3867 16.1181 14.4473 16.1362 14.5028L16.2516 14.8569C16.3037 15.0175 16.5064 15.0672 16.627 14.949L16.9795 14.6042C17.0669 14.5186 17.0711 14.3793 16.989 14.2888L16.6802 13.9478C16.5717 13.8281 16.3761 13.8565 16.3063 14.0021V14.0023Z" fill="#FFC63F"/>
</g>
<defs>
<clipPath id="clip0_2112_226147">
<rect width="20" height="20" fill="white" transform="translate(4.5 4)"/>
</clipPath>
</defs>
</svg>
