<svg width="24" height="24" viewBox="0 0 24 24" fill="none" xmlns="http://www.w3.org/2000/svg">
<path d="M12.0041 4.02739C16.4013 4.02739 19.9809 7.60695 19.9809 12.0041C19.9809 16.4013 16.4013 19.9809 12.0041 19.9809C7.60695 19.9809 4.02739 16.4013 4.02739 12.0041C4.02739 7.60695 7.59698 4.02739 12.0041 4.02739ZM12.0041 2.0332C6.4902 2.0332 2.0332 6.4902 2.0332 12.0041C2.0332 17.518 6.50017 21.975 12.0041 21.975C17.5081 21.975 21.975 17.5081 21.975 12.0041C21.975 6.50017 17.5081 2.0332 12.0041 2.0332Z" fill="#F96156"/>
<path fill-rule="evenodd" clip-rule="evenodd" d="M11.0039 16.9894V10.0098H13.0039V16.9894H11.0039Z" fill="#F96156"/>
<path fill-rule="evenodd" clip-rule="evenodd" d="M11.0039 9.01371V7.01953H13.0039V9.01371H11.0039Z" fill="#F96156"/>
</svg>
