<svg width="28" height="28" viewBox="0 0 28 28" fill="none" xmlns="http://www.w3.org/2000/svg">
<path d="M14.0038 4.69764C19.1339 4.69764 23.31 8.87379 23.31 14.0038C23.31 19.1339 19.1339 23.31 14.0038 23.31C8.87379 23.31 4.69764 19.1339 4.69764 14.0038C4.69764 8.87379 8.86216 4.69764 14.0038 4.69764ZM14.0038 2.37109C7.57093 2.37109 2.37109 7.57093 2.37109 14.0038C2.37109 20.4367 7.58256 25.6366 14.0038 25.6366C20.4251 25.6366 25.6366 20.4251 25.6366 14.0038C25.6366 7.58256 20.4251 2.37109 14.0038 2.37109Z" fill="#C6C6C6"/>
<path fill-rule="evenodd" clip-rule="evenodd" d="M18.6578 15.1712H9.35156V12.8379H18.6578V15.1712Z" fill="#C6C6C6"/>
<path fill-rule="evenodd" clip-rule="evenodd" d="M12.8379 18.6578V9.35156H15.1712V18.6578H12.8379Z" fill="#C6C6C6"/>
</svg>
