<svg width="128" height="142" viewBox="0 0 128 142" fill="none" xmlns="http://www.w3.org/2000/svg">
<g id="Group 2085665573">
<path id="Vector 11082 (Stroke)" fill-rule="evenodd" clip-rule="evenodd" d="M0.25 0.166016H56.9167V56.4335L39.6772 85.166H17.4895L0.25 56.4335V0.166016ZM14.4167 14.3327V52.5096L25.5105 70.9994H31.6562L42.75 52.5096V14.3327H14.4167Z" fill="white"/>
<path id="Vector 11083 (Stroke)" fill-rule="evenodd" clip-rule="evenodd" d="M71.084 0.166016H127.751V56.4335L110.511 85.166H88.3235L71.084 56.4335V0.166016ZM85.2507 14.3327V52.5096L96.3445 70.9994H102.49L113.584 52.5096V14.3327H85.2507Z" fill="white"/>
<path id="Vector 11084 (Stroke)" fill-rule="evenodd" clip-rule="evenodd" d="M21.5 127.666V85.166H35.6667V127.666H21.5Z" fill="white"/>
<path id="Vector 11085 (Stroke)" fill-rule="evenodd" clip-rule="evenodd" d="M92.334 127.666V85.166H106.501V127.666H92.334Z" fill="white"/>
<path id="Vector 11086 (Stroke)" fill-rule="evenodd" clip-rule="evenodd" d="M56.9167 141.833H0.25V127.666H56.9167V141.833Z" fill="white"/>
<path id="Vector 11087 (Stroke)" fill-rule="evenodd" clip-rule="evenodd" d="M127.751 141.833H71.084V127.666H127.751V141.833Z" fill="white"/>
</g>
</svg>
