<svg width="171" height="24" viewBox="0 0 171 24" fill="none" xmlns="http://www.w3.org/2000/svg">
<g id="MOPING">
<path id="Vector" d="M161.99 8C161.444 6.32258 159.637 5.35484 156.948 5.35484C152.705 5.35484 150.226 7.80645 150.226 11.9677C150.226 16.1613 152.536 18.6452 156.906 18.6452C160.709 18.6452 162.641 17.2742 162.705 15.0968H157.074V10.7097H170.436V13.9032C170.436 20.2581 164.763 24 156.822 24C147.999 24 141.99 19.4194 141.99 12.0323C141.99 4.35484 148.587 0 156.78 0C163.923 0 169.427 3.32258 170.099 8H161.99Z" fill="#F7FBFE"/>
<path id="Vector_2" d="M138.083 0.322266V23.6771H131.402L120.1 11.0642H119.889V23.6771H111.906V0.322266H118.713L129.847 12.8707H130.1V0.322266H138.083Z" fill="#F7FBFE"/>
<path id="Vector_3" d="M107.788 0.322266V23.6771H99.8047V0.322266H107.788Z" fill="#F7FBFE"/>
<path id="Vector_4" d="M72.4531 23.6771V0.322266H85.3943C92.201 0.322266 96.6548 3.61259 96.6548 8.51582C96.6548 13.5158 92.075 16.6448 85.1422 16.6448H80.4363V23.6771H72.4531ZM80.4363 11.8707H83.5456C86.5708 11.8707 88.2934 10.5803 88.2934 8.51582C88.2934 6.48356 86.5708 5.22549 83.5456 5.22549H80.4363V11.8707Z" fill="#F7FBFE"/>
<path id="Vector_5" d="M68.5456 12C68.5456 19.7742 62.075 24 53.8397 24C45.5204 24 39.0918 19.7419 39.0918 12C39.0918 4.22581 45.5204 0 53.8397 0C62.075 0 68.5456 4.22581 68.5456 12ZM60.3103 12C60.3103 7.70968 57.9993 5.35484 53.8397 5.35484C49.638 5.35484 47.3271 7.70968 47.3271 12C47.3271 16.2903 49.638 18.6452 53.8397 18.6452C57.9993 18.6452 60.3103 16.2903 60.3103 12Z" fill="#F7FBFE"/>
<path id="Vector_6" d="M0.435547 0.322266H10.3935L17.6204 13.9029H17.9986L25.2254 0.322266H35.1834V23.6771H27.3683V9.93517H27.1162L20.1834 23.5158H15.3935L8.50277 9.8384H8.25067V23.6771H0.435547V0.322266Z" fill="#F7FBFE"/>
</g>
</svg>
