<svg width="48" height="48" viewBox="0 0 48 48" fill="none" xmlns="http://www.w3.org/2000/svg">
<rect width="48" height="48" rx="8" fill="#2D2D2D"/>
<path fill-rule="evenodd" clip-rule="evenodd" d="M19.5858 15H28.4142L33 19.5858V28.4142L28.4142 33H19.5858L15 28.4142V19.5858L19.5858 15ZM20.4142 17L17 20.4142V27.5858L20.4142 31H27.5858L31 27.5858V20.4142L27.5858 17H20.4142Z" fill="white"/>
<rect x="23" y="13" width="2" height="2" fill="white"/>
<rect x="23" y="33" width="2" height="2" fill="white"/>
<rect x="13" y="23" width="2" height="2" fill="white"/>
<rect x="33" y="23" width="2" height="2" fill="white"/>
<path fill-rule="evenodd" clip-rule="evenodd" d="M22.1268 20.0996H25.8724L27.8996 22.1268V25.8724L25.8724 27.8996H22.1268L20.0996 25.8724V22.1268L22.1268 20.0996ZM22.8724 21.8996L21.8996 22.8724V25.1268L22.8724 26.0996H25.1268L26.0996 25.1268V22.8724L25.1268 21.8996H22.8724Z" fill="white"/>
</svg>
