<svg width="48" height="48" viewBox="0 0 48 48" fill="none" xmlns="http://www.w3.org/2000/svg">
<rect width="48" height="48" rx="8" fill="#2D2D2D"/>
<path d="M24.0051 17.0254C27.8539 17.0254 30.9847 20.1563 30.9847 24.0051C30.9847 27.8539 27.8539 30.9847 24.0051 30.9847C20.1563 30.9847 17.0254 27.8539 17.0254 24.0051C17.0254 20.1563 20.1563 17.0254 24.0051 17.0254ZM24.0051 15.0312C19.0396 15.0312 15.0312 19.0396 15.0312 24.0051C15.0312 28.9706 19.0495 32.9789 24.0051 32.9789C28.9606 32.9789 32.9789 28.9606 32.9789 24.0051C32.9789 19.0495 28.9606 15.0312 24.0051 15.0312Z" fill="white"/>
<path fill-rule="evenodd" clip-rule="evenodd" d="M23.0059 34.9739V31.9727H25.0059V34.9739H23.0059Z" fill="white"/>
<path fill-rule="evenodd" clip-rule="evenodd" d="M23.0059 16.0284V13.0371H25.0059V16.0284H23.0059Z" fill="white"/>
<path fill-rule="evenodd" clip-rule="evenodd" d="M31.9727 23.0059H34.9739V25.0059H31.9727V23.0059Z" fill="white"/>
<path fill-rule="evenodd" clip-rule="evenodd" d="M13.0371 23.0059H16.0284V25.0059H13.0371V23.0059Z" fill="white"/>
<path d="M24.0059 22.0118C25.1027 22.0118 26.0001 22.9091 26.0001 24.0059C26.0001 25.1027 25.1027 26.0001 24.0059 26.0001C22.9091 26.0001 22.0118 25.1027 22.0118 24.0059C22.0118 22.9091 22.9091 22.0118 24.0059 22.0118ZM24.0059 20.0176C21.8024 20.0176 20.0176 21.8024 20.0176 24.0059C20.0176 26.2095 21.8024 27.9943 24.0059 27.9943C26.2095 27.9943 27.9943 26.2095 27.9943 24.0059C27.9943 21.8024 26.2095 20.0176 24.0059 20.0176Z" fill="white"/>
</svg>
