<svg width="32" height="32" viewBox="0 0 32 32" fill="none" xmlns="http://www.w3.org/2000/svg">
<rect width="32" height="32" rx="6" fill="#2D2D2D"/>
<path d="M18.9492 15.2149H23.5117V10.6523L18.9492 15.2149Z" fill="white"/>
<path d="M20.954 18.4595C20.0146 20.354 18.1123 21.5302 16.0047 21.5302C12.9577 21.5302 10.4791 19.0515 10.4791 16.0046C10.4791 12.9577 12.9577 10.4791 16.0047 10.4791C18.428 10.4791 20.6067 12.0972 21.3013 14.418L22.8169 13.968C21.9407 11.0395 19.2253 8.90822 16.0126 8.90822C12.0736 8.90032 8.90039 12.0736 8.90039 16.0046C8.90039 19.9356 12.0815 23.1089 16.0047 23.1089C18.7911 23.1089 21.2066 21.4986 22.3669 19.1621L20.954 18.4595Z" fill="white"/>
</svg>
