<svg width="48" height="48" viewBox="0 0 48 48" fill="none" xmlns="http://www.w3.org/2000/svg">
<rect width="48" height="48" rx="8" fill="#2D2D2D"/>
<path d="M27.9925 28.0528C27.3045 28.0528 26.6763 28.2921 26.1778 28.681L19.8762 24.6627C19.926 24.4533 19.9559 24.234 19.9559 24.0046C19.9559 23.7554 19.926 23.5161 19.8662 23.2867L26.2276 19.0591C26.7162 19.428 27.3344 19.6473 27.9925 19.6473C29.6277 19.6473 30.9539 18.3112 30.9539 16.686C30.9539 15.0607 29.6277 13.7246 27.9925 13.7246C26.3573 13.7246 25.0311 15.0507 25.0311 16.686C25.0311 16.9352 25.061 17.1745 25.1209 17.4039L18.7594 21.6315C18.2609 21.2626 17.6526 21.0433 16.9946 21.0433C15.3593 21.0433 14.0332 22.3694 14.0332 24.0046C14.0332 25.6399 15.3593 26.966 16.9946 26.966C17.6726 26.966 18.3008 26.7367 18.8093 26.3378L25.1109 30.3661C25.061 30.5755 25.0311 30.7948 25.0311 31.0142C25.0311 32.6494 26.3573 33.9755 27.9925 33.9755C29.6277 33.9755 30.9539 32.6494 30.9539 31.0142C30.9539 29.379 29.6277 28.0528 27.9925 28.0528ZM27.4541 15.8783C27.6136 15.7786 27.7931 15.7188 27.9925 15.7188C28.5209 15.7188 28.9597 16.1475 28.9597 16.686C28.9597 17.025 28.7802 17.3141 28.5209 17.4836C28.3714 17.5933 28.1819 17.6532 27.9925 17.6532C27.464 17.6532 27.0253 17.2144 27.0253 16.686C27.0253 16.347 27.1948 16.0578 27.4541 15.8783ZM16.9946 24.9718C16.4561 24.9718 16.0274 24.5331 16.0274 24.0046C16.0274 23.4762 16.4561 23.0374 16.9946 23.0374C17.533 23.0374 17.9617 23.4762 17.9617 24.0046C17.9617 24.5331 17.523 24.9718 16.9946 24.9718ZM27.9925 31.9814C27.803 31.9814 27.6236 31.9215 27.474 31.8318C27.2048 31.6623 27.0253 31.3632 27.0253 31.0142C27.0253 30.4857 27.464 30.047 27.9925 30.047C28.1819 30.047 28.3614 30.1068 28.511 30.2065C28.7802 30.376 28.9597 30.6752 28.9597 31.0142C28.9597 31.5526 28.5209 31.9814 27.9925 31.9814Z" fill="#F96156"/>
<circle cx="28" cy="17" r="2" fill="#F96156"/>
<circle cx="17" cy="24" r="2" fill="#F96156"/>
<circle cx="28" cy="31" r="2" fill="#F96156"/>
</svg>
