<svg width="32" height="32" viewBox="0 0 32 32" fill="none" xmlns="http://www.w3.org/2000/svg">
<rect width="32" height="32" rx="6" fill="#2D2D2D"/>
<path fill-rule="evenodd" clip-rule="evenodd" d="M17.8415 10.7461L19.1585 12.2512L15.5 15.4524V16.5449L19.1585 19.7461L17.8415 21.2512L13.5 17.4524V14.5449L17.8415 10.7461Z" fill="white"/>
<path d="M19 7.91421L19.9142 7H22.0858L23 7.91421V10.0858L22.0858 11H19.9142L19 10.0858V7.91421Z" stroke="white" stroke-width="2"/>
<path d="M8 14.9142L8.91421 14H11.0858L12 14.9142V17.0858L11.0858 18H8.91421L8 17.0858V14.9142Z" stroke="white" stroke-width="2"/>
<path d="M19 21.9142L19.9142 21H22.0858L23 21.9142V24.0858L22.0858 25H19.9142L19 24.0858V21.9142Z" stroke="white" stroke-width="2"/>
</svg>
